<!DOCTYPE svg PUBLIC "-//W3C//DTD SVG 1.1//EN" "http://www.w3.org/Graphics/SVG/1.1/DTD/svg11.dtd">
<!-- Uploaded to: SVG Repo, www.svgrepo.com, Transformed by: SVG Repo Mixer Tools -->
<svg fill="#B15760" height="800px" width="800px" version="1.1" id="Layer_1" xmlns="http://www.w3.org/2000/svg" xmlns:xlink="http://www.w3.org/1999/xlink" viewBox="0 0 512 512" xml:space="preserve" stroke="#B15760">
<g id="SVGRepo_bgCarrier" stroke-width="0"/>
<g id="SVGRepo_tracerCarrier" stroke-linecap="round" stroke-linejoin="round"/>
<g id="SVGRepo_iconCarrier"> <g> <g> <g> <path d="M490.667,0H21.333C9.536,0,0,9.557,0,21.333V128h512V21.333C512,9.557,502.464,0,490.667,0z M85.333,85.333 C73.557,85.333,64,75.776,64,64s9.557-21.333,21.333-21.333S106.667,52.224,106.667,64S97.109,85.333,85.333,85.333z M149.333,85.333C137.557,85.333,128,75.776,128,64s9.557-21.333,21.333-21.333S170.667,52.224,170.667,64 S161.109,85.333,149.333,85.333z M213.333,85.333C201.557,85.333,192,75.776,192,64s9.557-21.333,21.333-21.333 S234.667,52.224,234.667,64S225.109,85.333,213.333,85.333z"/> <path d="M0,490.667C0,502.443,9.536,512,21.333,512h469.333c11.797,0,21.333-9.557,21.333-21.333v-320H0V490.667z M283.563,271.083c-8.32-8.341-8.32-21.845,0.043-30.187c8.299-8.299,21.824-8.32,30.165,0.021l63.168,63.296 c2.283,2.069,4.139,4.651,5.397,7.616c3.285,7.979,1.515,17.152-4.587,23.253l-64,64c-4.16,4.16-9.621,6.251-15.083,6.251 c-5.461,0-10.923-2.091-15.083-6.251c-8.341-8.341-8.341-21.824,0-30.165l48.875-48.875L283.563,271.083z M134.251,304.917l64-64 c8.341-8.341,21.824-8.341,30.165,0c8.341,8.341,8.341,21.824,0,30.165l-48.875,48.875l48.896,48.96 c8.32,8.341,8.32,21.845-0.043,30.165c-4.139,4.16-9.6,6.251-15.061,6.251c-5.461,0-10.944-2.091-15.104-6.251l-63.168-63.296 c-2.283-2.069-4.139-4.651-5.397-7.616C126.379,320.192,128.149,311.019,134.251,304.917z"/> </g> </g> </g> </g>
</svg>